<svg width="280" height="80" viewBox="0 0 280 80" fill="none" xmlns="http://www.w3.org/2000/svg">
<rect width="279.77" height="80" fill="black"/>
<path d="M22.8033 73.8864V26.6364H32.1996V32.4084H32.6246C33.0423 31.4837 33.6463 30.544 34.4368 29.5895C35.2422 28.62 36.2862 27.8146 37.5689 27.1733C38.8665 26.517 40.4773 26.1889 42.4013 26.1889C44.907 26.1889 47.2188 26.8452 49.3366 28.1577C51.4545 29.4553 53.1474 31.4165 54.4151 34.0415C55.6829 36.6516 56.3168 39.9254 56.3168 43.8629C56.3168 47.696 55.6978 50.9325 54.4599 53.5724C53.2369 56.1974 51.5664 58.1886 49.4485 59.5458C47.3455 60.8881 44.989 61.5593 42.3789 61.5593C40.5295 61.5593 38.956 61.2536 37.6584 60.642C36.3757 60.0305 35.3242 59.2624 34.5039 58.3377C33.6836 57.3981 33.0572 56.451 32.6246 55.4964H32.3338V73.8864H22.8033ZM32.1325 43.8182C32.1325 45.8615 32.4158 47.6438 32.9826 49.1651C33.5494 50.6864 34.3697 51.8722 35.4435 52.7223C36.5174 53.5575 37.8224 53.9751 39.3587 53.9751C40.9098 53.9751 42.2223 53.5501 43.2962 52.6999C44.37 51.8349 45.1829 50.6417 45.7347 49.1204C46.3015 47.5842 46.5849 45.8168 46.5849 43.8182C46.5849 41.8345 46.3089 40.0895 45.7571 38.5831C45.2053 37.0767 44.3924 35.8984 43.3185 35.0483C42.2447 34.1982 40.9247 33.7731 39.3587 33.7731C37.8075 33.7731 36.495 34.1832 35.4212 35.0036C34.3622 35.8239 33.5494 36.9872 32.9826 38.4936C32.4158 40 32.1325 41.7749 32.1325 43.8182ZM77.2231 61.5593C74.613 61.5593 72.249 60.8881 70.1311 59.5458C68.0281 58.1886 66.3577 56.1974 65.1198 53.5724C63.8967 50.9325 63.2852 47.696 63.2852 43.8629C63.2852 39.9254 63.9191 36.6516 65.1869 34.0415C66.4546 31.4165 68.14 29.4553 70.243 28.1577C72.3609 26.8452 74.6801 26.1889 77.2007 26.1889C79.1247 26.1889 80.7281 26.517 82.0107 27.1733C83.3083 27.8146 84.3524 28.62 85.1428 29.5895C85.9482 30.544 86.5597 31.4837 86.9774 32.4084H87.2682V15.1818H96.7764V61H87.3801V55.4964H86.9774C86.5299 56.451 85.896 57.3981 85.0757 58.3377C84.2703 59.2624 83.2188 60.0305 81.9212 60.642C80.6386 61.2536 79.0725 61.5593 77.2231 61.5593ZM80.2433 53.9751C81.7796 53.9751 83.0771 53.5575 84.1361 52.7223C85.21 51.8722 86.0303 50.6864 86.597 49.1651C87.1787 47.6438 87.4695 45.8615 87.4695 43.8182C87.4695 41.7749 87.1862 40 86.6194 38.4936C86.0526 36.9872 85.2323 35.8239 84.1585 35.0036C83.0846 34.1832 81.7796 33.7731 80.2433 33.7731C78.6773 33.7731 77.3573 34.1982 76.2835 35.0483C75.2096 35.8984 74.3967 37.0767 73.8449 38.5831C73.2931 40.0895 73.0171 41.8345 73.0171 43.8182C73.0171 45.8168 73.2931 47.5842 73.8449 49.1204C74.4117 50.6417 75.2245 51.8349 76.2835 52.6999C77.3573 53.5501 78.6773 53.9751 80.2433 53.9751ZM124.982 26.6364V33.7955H103.773V26.6364H124.982ZM108.628 61V24.1531C108.628 21.6623 109.112 19.5966 110.082 17.956C111.066 16.3153 112.408 15.0849 114.109 14.2646C115.809 13.4442 117.74 13.0341 119.903 13.0341C121.365 13.0341 122.7 13.1459 123.908 13.3697C125.131 13.5934 126.041 13.7947 126.637 13.9737L124.937 21.1328C124.564 21.0135 124.102 20.9016 123.55 20.7972C123.013 20.6928 122.461 20.6406 121.894 20.6406C120.492 20.6406 119.515 20.9688 118.964 21.625C118.412 22.2663 118.136 23.1687 118.136 24.332V61H108.628ZM142.225 15.1818V61H132.694V15.1818H142.225ZM157.633 73.8864C156.425 73.8864 155.291 73.7894 154.232 73.5955C153.188 73.4165 152.323 73.1854 151.637 72.902L153.785 65.7876C154.903 66.1307 155.91 66.3171 156.805 66.3469C157.715 66.3768 158.498 66.168 159.154 65.7205C159.825 65.2731 160.37 64.5124 160.787 63.4386L161.347 61.9844L149.02 26.6364H159.042L166.157 51.8722H166.515L173.696 26.6364H183.786L170.43 64.7138C169.788 66.5632 168.916 68.174 167.812 69.5462C166.723 70.9332 165.344 71.9996 163.673 72.7454C162.003 73.506 159.989 73.8864 157.633 73.8864ZM193.97 61.5817C192.494 61.5817 191.226 61.0597 190.167 60.0156C189.123 58.9567 188.601 57.6889 188.601 56.2124C188.601 54.7507 189.123 53.4979 190.167 52.4538C191.226 51.4098 192.494 50.8878 193.97 50.8878C195.402 50.8878 196.655 51.4098 197.729 52.4538C198.803 53.4979 199.34 54.7507 199.34 56.2124C199.34 57.1967 199.086 58.0991 198.579 58.9194C198.087 59.7248 197.438 60.3736 196.633 60.8658C195.827 61.343 194.94 61.5817 193.97 61.5817ZM218.853 61.6488C216.661 61.6488 214.707 61.2685 212.992 60.5078C211.277 59.7322 209.919 58.5913 208.92 57.0849C207.936 55.5636 207.444 53.6694 207.444 51.4023C207.444 49.4933 207.794 47.8899 208.495 46.5923C209.196 45.2947 210.151 44.2507 211.359 43.4602C212.567 42.6697 213.939 42.0732 215.475 41.6705C217.026 41.2678 218.652 40.9844 220.352 40.8203C222.351 40.6115 223.962 40.4176 225.185 40.2386C226.408 40.0447 227.295 39.7614 227.847 39.3885C228.399 39.0156 228.675 38.4638 228.675 37.733V37.5987C228.675 36.1818 228.227 35.0856 227.332 34.31C226.452 33.5344 225.2 33.1467 223.574 33.1467C221.859 33.1467 220.494 33.527 219.48 34.2876C218.466 35.0334 217.794 35.973 217.466 37.1065L208.652 36.3906C209.099 34.3026 209.979 32.4979 211.292 30.9766C212.604 29.4403 214.297 28.2621 216.37 27.4418C218.458 26.6065 220.874 26.1889 223.619 26.1889C225.528 26.1889 227.355 26.4126 229.1 26.8601C230.86 27.3075 232.418 28.0011 233.776 28.9407C235.148 29.8803 236.229 31.0884 237.02 32.565C237.81 34.0266 238.205 35.7791 238.205 37.8224V61H229.167V56.2347H228.899C228.347 57.3086 227.608 58.2557 226.684 59.076C225.759 59.8814 224.648 60.5153 223.35 60.9776C222.053 61.4251 220.554 61.6488 218.853 61.6488ZM221.583 55.0714C222.985 55.0714 224.223 54.7955 225.297 54.2436C226.37 53.6768 227.213 52.9162 227.825 51.9616C228.436 51.0071 228.742 49.9258 228.742 48.7177V45.071C228.444 45.2649 228.033 45.4439 227.511 45.608C227.004 45.7571 226.43 45.8988 225.789 46.033C225.147 46.1523 224.506 46.2642 223.865 46.3686C223.223 46.4581 222.642 46.5401 222.12 46.6147C221.001 46.7788 220.024 47.0398 219.189 47.3977C218.354 47.7557 217.705 48.2404 217.243 48.8519C216.78 49.4485 216.549 50.1942 216.549 51.0891C216.549 52.3867 217.019 53.3786 217.959 54.0646C218.913 54.7358 220.121 55.0714 221.583 55.0714ZM247.489 61V26.6364H257.02V61H247.489ZM252.277 22.2067C250.86 22.2067 249.645 21.7369 248.63 20.7972C247.631 19.8427 247.131 18.7017 247.131 17.3743C247.131 16.0618 247.631 14.9357 248.63 13.9961C249.645 13.0415 250.86 12.5643 252.277 12.5643C253.694 12.5643 254.902 13.0415 255.901 13.9961C256.915 14.9357 257.423 16.0618 257.423 17.3743C257.423 18.7017 256.915 19.8427 255.901 20.7972C254.902 21.7369 253.694 22.2067 252.277 22.2067Z" fill="white"/>
</svg>
