<svg width="280" height="80" viewBox="0 0 280 80" fill="none" xmlns="http://www.w3.org/2000/svg">
<rect width="279.77" height="80" fill="black"/>
<path d="M59.461 33.564C60.049 35.706 60.343 38.037 60.343 40.557C60.343 42.825 60.007 45.072 59.335 47.298C58.747 49.314 57.823 51.099 56.563 52.653C55.429 54.081 53.98 55.257 52.216 56.181C50.578 57.021 48.646 57.441 46.42 57.441C44.572 57.441 43.039 57.168 41.821 56.622C40.435 55.992 39.28 55.215 38.356 54.291V61.284C38.776 61.368 39.133 61.431 39.427 61.473C39.763 61.557 40.036 61.62 40.246 61.662C40.918 61.746 41.233 61.788 41.191 61.788L41.569 61.851C42.619 62.103 43.144 62.775 43.144 63.867V67.521H25.819V63.867C25.819 62.775 26.344 62.103 27.394 61.851L27.772 61.788L28.717 61.662L30.607 61.284V30.918L28.717 30.603C28.507 30.561 28.318 30.519 28.15 30.477C28.024 30.435 27.898 30.414 27.772 30.414L27.394 30.351C26.344 30.099 25.819 29.448 25.819 28.398V24.681H35.332C35.836 24.681 36.277 24.807 36.655 25.059C36.991 25.269 37.222 25.626 37.348 26.13L37.978 29.091C39.238 27.663 40.729 26.466 42.451 25.5C44.131 24.576 46.105 24.114 48.373 24.114C50.221 24.114 51.838 24.471 53.224 25.185C54.694 25.941 55.954 27.012 57.004 28.398C58.054 29.742 58.873 31.464 59.461 33.564ZM51.775 45.471C52.111 44.253 52.279 42.636 52.279 40.62C52.279 38.604 52.132 36.987 51.838 35.769C51.544 34.509 51.103 33.459 50.515 32.619C49.927 31.779 49.234 31.17 48.436 30.792C47.638 30.414 46.735 30.225 45.727 30.225C44.047 30.225 42.661 30.561 41.569 31.233C40.393 31.947 39.322 32.913 38.356 34.131V48.621C39.196 49.671 40.162 50.427 41.254 50.889C42.22 51.309 43.333 51.519 44.593 51.519C45.853 51.519 46.924 51.309 47.806 50.889C48.646 50.511 49.444 49.839 50.2 48.873C50.914 47.907 51.439 46.773 51.775 45.471ZM89.1434 56.874C88.6814 56.874 88.2614 56.748 87.8834 56.496C87.5474 56.286 87.3164 55.929 87.1904 55.425L86.5604 52.464C85.3004 53.892 83.8094 55.089 82.0874 56.055C80.4074 56.979 78.4124 57.441 76.1024 57.441C74.2964 57.441 72.7004 57.084 71.3144 56.37C69.8444 55.614 68.5844 54.543 67.5344 53.157C66.4844 51.813 65.6654 50.091 65.0774 47.991C64.4894 45.849 64.1954 43.497 64.1954 40.935C64.1954 38.541 64.5104 36.315 65.1404 34.257C65.7284 32.325 66.6734 30.54 67.9754 28.902C69.1094 27.474 70.5584 26.298 72.3224 25.374C74.0024 24.492 75.9134 24.051 78.0554 24.051C79.8614 24.051 81.4154 24.345 82.7174 24.933C84.1034 25.563 85.2374 26.319 86.1194 27.201V16.428L84.2924 16.113C84.0824 16.071 83.8934 16.029 83.7254 15.987C83.5994 15.945 83.4734 15.924 83.3474 15.924L82.9694 15.861C81.9194 15.609 81.3944 14.958 81.3944 13.908V10.191H93.9314V50.7L95.5694 50.952L96.3884 51.141L96.7664 51.204C97.8164 51.456 98.3414 52.107 98.3414 53.157V56.874H89.1434ZM86.1824 32.934C85.3424 31.884 84.3764 31.128 83.2844 30.666C82.1504 30.204 81.0164 29.973 79.8824 29.973C78.7904 29.973 77.7404 30.204 76.7324 30.666C75.8084 31.086 74.9894 31.758 74.2754 32.682C73.6454 33.564 73.1414 34.698 72.7634 36.084C72.4274 37.302 72.2594 38.919 72.2594 40.935C72.2594 42.951 72.4064 44.568 72.7004 45.786C72.9944 47.046 73.4354 48.096 74.0234 48.936C74.6114 49.818 75.2834 50.427 76.0394 50.763C76.8374 51.141 77.7614 51.33 78.8114 51.33C80.4914 51.33 81.8774 50.994 82.9694 50.322C84.1454 49.608 85.2164 48.642 86.1824 47.424V32.934ZM142.205 56.874C141.449 57.084 140.798 57.252 140.252 57.378C139.412 57.462 138.74 57.504 138.236 57.504C136.43 57.504 134.813 57.231 133.385 56.685C132.083 56.139 131.033 55.404 130.235 54.48C129.437 53.556 128.849 52.464 128.471 51.204C128.093 49.944 127.904 48.621 127.904 47.235V16.176H121.982C119.672 16.176 117.866 16.827 116.564 18.129C115.304 19.431 114.674 21.258 114.674 23.61V24.933H122.36V30.477H114.926V50.763C115.262 50.805 115.598 50.868 115.934 50.952C116.27 51.036 116.585 51.099 116.879 51.141L118.013 51.267L118.517 51.33C119.567 51.582 120.092 52.254 120.092 53.346V57H102.389V53.346C102.389 52.254 102.914 51.582 103.964 51.33L104.405 51.267L105.287 51.141L107.177 50.763V30.54L104.405 30.099C103.817 29.973 103.334 29.763 102.956 29.469C102.578 29.133 102.389 28.692 102.389 28.146V24.933H107.177V23.61C107.177 21.804 107.45 20.145 107.996 18.633C108.5 17.037 109.319 15.651 110.453 14.475C111.587 13.257 112.994 12.312 114.674 11.64C116.354 10.884 118.391 10.506 120.785 10.506C122.633 10.506 124.418 10.569 126.14 10.695C127.82 10.821 129.542 10.884 131.306 10.884H135.653V47.235C135.653 47.781 135.737 48.474 135.905 49.314C136.031 49.818 136.262 50.28 136.598 50.7C136.892 50.994 137.333 51.246 137.921 51.456C138.593 51.624 139.244 51.708 139.874 51.708C140.672 51.708 141.197 51.771 141.449 51.897C141.743 52.023 141.911 52.296 141.953 52.716L142.205 56.874ZM182.652 28.398C182.652 29.448 182.127 30.099 181.077 30.351C180.909 30.351 180.657 30.393 180.321 30.477C179.985 30.561 179.25 30.708 178.116 30.918L163.185 65.883C162.933 66.471 162.618 66.891 162.24 67.143C161.946 67.395 161.4 67.521 160.602 67.521H154.806L160.854 54.606L150.459 30.918C149.325 30.708 148.59 30.561 148.254 30.477C147.918 30.393 147.666 30.351 147.498 30.351C146.448 30.099 145.923 29.448 145.923 28.398V24.681H161.673V28.398C161.673 29.448 161.148 30.099 160.098 30.351L158.586 30.603L163.689 42.888C163.857 43.266 163.983 43.602 164.067 43.896C164.151 44.19 164.214 44.421 164.256 44.589C164.34 44.883 164.487 45.471 164.697 46.353L165.264 44.589C165.516 43.833 165.726 43.266 165.894 42.888L170.619 30.729L168.477 30.351C167.427 30.099 166.902 29.448 166.902 28.398V24.681H182.652V28.398ZM187.145 52.716C187.145 52.002 187.271 51.372 187.523 50.826C187.775 50.238 188.111 49.734 188.531 49.314C188.951 48.894 189.455 48.558 190.043 48.306C190.631 48.054 191.261 47.928 191.933 47.928C192.605 47.928 193.235 48.054 193.823 48.306C194.411 48.558 194.915 48.894 195.335 49.314C195.755 49.734 196.091 50.238 196.343 50.826C196.595 51.372 196.721 52.002 196.721 52.716C196.721 53.388 196.595 54.018 196.343 54.606C196.091 55.152 195.755 55.635 195.335 56.055C194.915 56.475 194.411 56.811 193.823 57.063C193.277 57.315 192.668 57.441 191.996 57.441C191.324 57.441 190.694 57.315 190.106 57.063C189.434 56.769 188.909 56.433 188.531 56.055C188.111 55.635 187.775 55.152 187.523 54.606C187.271 54.018 187.145 53.388 187.145 52.716ZM230.308 51.267C231.358 51.519 231.883 52.17 231.883 53.22V56.937H224.449C223.651 56.937 223.063 56.832 222.685 56.622C222.265 56.454 221.95 55.992 221.74 55.236L221.047 52.968C220.207 53.766 219.409 54.417 218.653 54.921C218.065 55.341 217.246 55.803 216.196 56.307C215.44 56.643 214.558 56.916 213.55 57.126C212.5 57.336 211.45 57.441 210.4 57.441C209.014 57.441 207.754 57.252 206.62 56.874C205.402 56.454 204.415 55.908 203.659 55.236C202.777 54.438 202.126 53.514 201.706 52.464C201.244 51.33 201.013 50.07 201.013 48.684C201.013 47.424 201.328 46.206 201.958 45.03C202.588 43.812 203.659 42.741 205.171 41.817C206.767 40.809 208.741 40.011 211.093 39.423C213.571 38.793 216.658 38.478 220.354 38.478V36.588C220.354 34.488 219.892 32.871 218.968 31.737C218.086 30.687 216.763 30.162 214.999 30.162C213.655 30.162 212.605 30.309 211.849 30.603C210.883 30.981 210.148 31.317 209.644 31.611L207.943 32.556C207.481 32.85 206.914 32.997 206.242 32.997C205.696 32.997 205.234 32.871 204.856 32.619C204.604 32.451 204.31 32.115 203.974 31.611L202.525 29.154C206.305 25.71 210.778 23.988 215.944 23.988C217.834 23.988 219.535 24.303 221.047 24.933C222.517 25.563 223.756 26.424 224.764 27.516C225.898 28.818 226.696 30.141 227.158 31.485C227.662 32.997 227.914 34.677 227.914 36.525V50.826L229.615 51.141L230.308 51.267ZM220.354 43.203C218.002 43.203 216.112 43.35 214.684 43.644C213.13 43.98 211.891 44.358 210.967 44.778C210.043 45.198 209.392 45.702 209.014 46.29C208.636 46.836 208.447 47.487 208.447 48.243C208.447 49.671 208.846 50.658 209.644 51.204C210.484 51.792 211.534 52.086 212.794 52.086C213.592 52.086 214.327 52.023 214.999 51.897C215.713 51.771 216.364 51.54 216.952 51.204C217.708 50.784 218.275 50.427 218.653 50.133C219.241 49.671 219.808 49.167 220.354 48.621V43.203ZM249.806 15.231C249.806 15.819 249.659 16.449 249.365 17.121C249.113 17.709 248.756 18.234 248.294 18.696C247.79 19.2 247.265 19.557 246.719 19.767C246.089 20.019 245.438 20.145 244.766 20.145C244.094 20.145 243.443 20.019 242.813 19.767C242.309 19.557 241.805 19.2 241.301 18.696C240.839 18.234 240.482 17.709 240.23 17.121C239.978 16.533 239.852 15.903 239.852 15.231C239.852 14.559 239.978 13.908 240.23 13.278C240.44 12.732 240.797 12.207 241.301 11.703C241.763 11.241 242.267 10.905 242.813 10.695C243.569 10.401 244.22 10.254 244.766 10.254C245.312 10.254 245.963 10.401 246.719 10.695C247.349 10.947 247.874 11.283 248.294 11.703C248.798 12.207 249.155 12.732 249.365 13.278C249.659 13.992 249.806 14.643 249.806 15.231ZM251.822 51.33C252.872 51.582 253.397 52.233 253.397 53.283V57H236.072V53.283C236.072 52.233 236.597 51.582 237.647 51.33L238.025 51.267L238.97 51.078L240.86 50.763V30.918L238.97 30.603C238.76 30.561 238.571 30.519 238.403 30.477C238.277 30.435 238.151 30.414 238.025 30.414L237.647 30.351C236.597 30.099 236.072 29.448 236.072 28.398V24.681H248.609V50.763L250.499 51.078C250.709 51.12 250.877 51.162 251.003 51.204C251.171 51.246 251.318 51.267 251.444 51.267L251.822 51.33Z" fill="white"/>
</svg>
